PathFileType  4	(X/Y/Z) C:\Users\antoi\Documents\MyRepositories\mobilecap\ResultsAnalysis
DataRate	CameraRate	NumFrames	NumMarkers	Units	OrigDataRate	OrigDataStartFrame	OrigNumFrames
100.0	100.0	4	51	mm	100.0	135	268
Frame#	Time	r_knee			r_shank_antsup			r_ankle			r_calc			r_5meta			r_toe			L_knee			L_shank_antsup			L_ankle			L_calc			L_5meta			L_toe			r_sh2			r_sh3			r_sh4			L_sh2			L_sh3			r_thigh1			r_thigh2			r_thigh3			r_thigh4			r_thigh5			L_thigh1			L_thigh2			L_thigh3			L_thigh4			r.ASIS			r.PSIS			L.ASIS			L.PSIS			C7			R_Shoulder			L_Shoulder			R_Sternum			L_Sternum			R_humerus			R_elbow_med			R_elbow_lat			R_forearm			R_wrist_radius			R_wrist_ulna			L_humerus			L_elbow_med			L_elbow_lat			L_forearm			L_wrist_radius			L_wrist_ulna			R_HJC			L_HJC			R_HJC_reg			L_HJC_reg			
		X1	Y1	Z1	X2	Y2	Z2	X3	Y3	Z3	X4	Y4	Z4	X5	Y5	Z5	X6	Y6	Z6	X7	Y7	Z7	X8	Y8	Z8	X9	Y9	Z9	X10	Y10	Z10	X11	Y11	Z11	X12	Y12	Z12	X13	Y13	Z13	X14	Y14	Z14	X15	Y15	Z15	X16	Y16	Z16	X17	Y17	Z17	X18	Y18	Z18	X19	Y19	Z19	X20	Y20	Z20	X21	Y21	Z21	X22	Y22	Z22	X23	Y23	Z23	X24	Y24	Z24	X25	Y25	Z25	X26	Y26	Z26	X27	Y27	Z27	X28	Y28	Z28	X29	Y29	Z29	X30	Y30	Z30	X31	Y31	Z31	X32	Y32	Z32	X33	Y33	Z33	X34	Y34	Z34	X35	Y35	Z35	X36	Y36	Z36	X37	Y37	Z37	X38	Y38	Z38	X39	Y39	Z39	X40	Y40	Z40	X41	Y41	Z41	X42	Y42	Z42	X43	Y43	Z43	X44	Y44	Z44	X45	Y45	Z45	X46	Y46	Z46	X47	Y47	Z47	X48	Y48	Z48	X49	Y49	Z49	X50	Y50	Z50	X51	Y51	Z51	

135	1.34000000	-213.41910	520.31959	-418.64611	-190.96899	437.38137	-405.60371	-314.17204	100.01018	-444.50979	-376.68794	56.01484	-501.56023	-188.41366	35.76551	-399.09681	-144.48398	57.97194	-455.15458	-222.49624	530.72311	-778.88629	-208.05608	412.37529	-798.85491	-326.15386	105.62544	-763.61018	-395.80575	61.80262	-709.27289	-192.46159	31.69007	-817.00616	-156.88348	54.67627	-756.20478	-214.90014	326.18485	-404.57512	-264.35177	452.41828	-389.21072	-295.12478	340.79019	-392.07671	-293.24937	441.59763	-801.27914	-317.76625	323.11942	-796.07396	-309.09573	830.50266	-383.53244	-246.08913	741.09927	-393.11066	-275.03467	687.12642	-367.71544	-399.30202	760.52375	-387.31116	-325.19118	668.80009	-384.19547	-324.41343	843.95159	-771.89636	-244.02394	731.51317	-783.61886	-419.04536	771.95945	-762.99388	-332.07682	665.48889	-785.01477	-355.54912	991.22619	-444.03287	-553.22503	1012.38096	-515.56360	-368.68529	989.18206	-703.31153	-557.67958	1011.21820	-617.55273	-525.40791	1539.94713	-571.77689	-486.39665	1519.30219	-412.45014	-462.44548	1515.96673	-717.90322	-383.66985	1445.88360	-532.88743	-385.37207	1441.46286	-590.39159	-618.53452	1377.31914	-232.02659	-670.07037	1245.57997	-244.25970	-659.03430	1315.04051	-178.01627	-506.68943	1311.53496	-201.23512	-398.24583	1298.44903	-243.05512	-406.02719	1290.94029	-198.90948	-613.72649	1405.70436	-877.30361	-695.30434	1296.64607	-873.15033	-678.53132	1359.45514	-925.07287	-524.13143	1318.11175	-974.85424	-425.33678	1300.00234	-969.40246	-438.49061	1281.68869	-1001.93811	-432.36025	904.99831	-447.74835	-440.27801	903.59222	-677.97723	-424.21557	909.46223	-476.98124	-431.69442	907.50618	-648.15031	
136	1.35000000	-202.02066	508.70325	-424.13433	-177.00454	425.01199	-409.75471	-311.79064	99.35813	-448.89933	-376.54007	54.95598	-503.85133	-188.44857	37.07948	-400.57567	-143.93852	57.76293	-456.51875	-211.10668	517.55870	-776.74102	-197.19777	400.63345	-796.32321	-325.91726	100.35853	-758.51696	-396.03003	56.87855	-705.75414	-192.80651	32.42020	-816.16305	-156.70189	54.48581	-755.24839	-202.44337	314.44391	-411.98440	-250.68200	441.49387	-395.96847	-282.82445	330.09987	-401.79968	-281.81331	430.91973	-798.55067	-308.25979	313.27502	-792.65793	-300.97793	815.27902	-384.43747	-234.99208	728.49938	-396.61322	-263.06442	673.24974	-372.02333	-389.46971	743.28491	-389.83596	-312.52895	653.81620	-388.90146	-317.81681	827.21418	-771.15763	-234.78863	716.44832	-781.80695	-410.82841	753.34290	-761.54621	-321.66732	648.86967	-783.67795	-351.39908	967.95651	-443.97756	-548.78669	996.36882	-514.71361	-362.96858	963.70815	-701.45051	-553.44046	993.44617	-617.03159	-514.65796	1521.19786	-572.74050	-478.12875	1495.70774	-408.90918	-453.60997	1494.86383	-722.56332	-374.19916	1425.15066	-534.77088	-375.48772	1420.91354	-590.71966	-610.83458	1336.41882	-238.48183	-659.54984	1208.69762	-258.57959	-651.67293	1275.37198	-189.23394	-498.73839	1272.89570	-204.74644	-388.18591	1261.51491	-242.39783	-397.97543	1252.15403	-198.52123	-607.64170	1370.89225	-874.14092	-687.14672	1263.65774	-858.74598	-673.43584	1323.36072	-915.29236	-521.27781	1275.89756	-968.90391	-422.43912	1257.21410	-966.82009	-437.75294	1236.51717	-996.60624	-431.61595	884.85767	-445.78592	-439.00419	881.15456	-676.00152	-422.83501	890.25754	-475.13768	-430.55791	885.46167	-645.00594	
137	1.36000000	-181.30350	504.81648	-431.61223	-160.64663	422.51319	-414.75085	-308.25083	102.19600	-449.44576	-376.31118	56.02325	-504.08649	-188.06747	37.57163	-401.02533	-142.84061	57.82188	-456.57234	-197.45309	508.31056	-773.16963	-185.30895	394.35642	-791.80151	-324.78987	99.60639	-755.32625	-395.77467	56.63792	-704.59602	-192.95137	33.06497	-815.75380	-156.50667	54.64634	-754.76200	-188.96410	313.09021	-415.92480	-234.13535	441.67137	-403.88702	-269.14701	331.08834	-409.30754	-269.17084	426.76279	-794.58560	-298.77507	310.04633	-788.63535	-293.82871	804.47755	-386.10305	-222.94566	722.12023	-402.18076	-248.67621	664.62869	-378.34440	-378.85977	728.57038	-393.34586	-297.17432	642.94635	-395.33059	-313.55446	812.85292	-771.28658	-226.96264	704.72546	-780.02838	-404.05312	736.37214	-759.06168	-311.60451	634.52410	-779.94224	-349.00150	950.37434	-444.47329	-545.59196	984.06982	-513.39583	-359.99446	943.35297	-699.37983	-550.64892	979.71502	-617.73528	-503.69344	1505.16497	-573.35959	-470.25311	1475.04875	-405.76159	-445.66670	1476.59378	-726.42002	-364.65320	1408.36651	-534.91447	-365.78284	1404.00327	-590.73734	-599.94203	1298.33136	-245.53388	-644.65346	1173.17952	-272.76582	-640.86361	1236.85829	-201.01930	-487.56112	1234.48536	-208.75034	-374.83064	1224.56192	-241.59846	-387.10409	1212.68679	-198.31240	-599.60099	1338.16710	-870.45046	-675.75114	1230.92178	-844.46026	-665.45262	1287.57225	-905.70930	-515.44778	1233.39131	-962.34949	-416.85892	1214.25538	-963.42757	-433.64015	1190.84156	-990.72761	-431.77095	869.78022	-443.99277	-439.01567	863.35002	-674.15439	-422.41917	875.54714	-473.93367	-430.56298	868.53247	-642.05357	
138	1.37000000	-157.47781	506.83361	-439.87874	-144.91423	427.17691	-421.71520	-306.15835	104.00227	-448.53749	-376.14000	56.34579	-503.61838	-187.74094	37.43362	-401.08600	-142.29790	57.63276	-456.42531	-180.49911	504.59666	-768.91466	-172.88952	391.88761	-787.26835	-322.56337	101.97965	-754.87568	-395.56924	57.59575	-704.97946	-192.85264	33.19108	-815.56538	-156.29753	54.66834	-754.65828	-178.69645	319.22308	-417.18855	-216.91479	450.33895	-411.60237	-257.55865	341.67593	-410.74530	-255.30233	427.95834	-790.39366	-290.24213	312.52994	-785.70348	-287.35727	796.15290	-389.72576	-212.40161	717.17356	-409.13627	-234.36397	658.01056	-385.15406	-368.47860	716.06610	-395.41968	-282.53511	634.28440	-400.08301	-311.16010	801.42984	-770.37651	-219.69265	697.39210	-777.45165	-398.15921	721.30724	-756.14113	-300.91889	623.34691	-775.23964	-347.36295	938.25813	-444.52803	-543.50905	971.20827	-513.03574	-359.49216	928.87441	-698.01933	-548.97185	967.11767	-618.21530	-492.64002	1491.29936	-573.77096	-461.53317	1456.76959	-403.84825	-436.99681	1460.52231	-728.86930	-355.33467	1394.09999	-534.85371	-356.41714	1389.92363	-591.38443	-586.89555	1266.18979	-253.23373	-625.81608	1141.28448	-285.87763	-626.86255	1201.09499	-212.26792	-472.87321	1197.90333	-213.56492	-358.60601	1188.50918	-241.17616	-373.40153	1173.97789	-199.32308	-590.25953	1308.32733	-865.07596	-661.38853	1199.79856	-830.87168	-654.92907	1253.33312	-896.74679	-506.16279	1192.21763	-955.40350	-408.15598	1172.08301	-958.98206	-425.71577	1146.05518	-983.80671	-430.46535	857.76037	-442.92253	-438.01221	849.40479	-673.01735	-420.48030	862.03621	-473.70457	-429.17041	855.51357	-640.96363	
